<svg width="231" height="223" viewBox="0 0 231 223" fill="none" xmlns="http://www.w3.org/2000/svg">
<path d="M201.729 83.3033L136.708 148.324C132.415 152.617 125.456 152.617 121.163 148.324C116.871 144.032 116.871 137.072 121.163 132.78L170.64 83.3033C179.225 74.7183 193.144 74.7183 201.729 83.3033Z" fill="#FEBB00"/>
<path d="M21.9833 2.63934L21.9833 222.472C9.84226 222.472 -5.72205e-06 212.63 -5.72205e-06 200.489L-5.72205e-06 24.6227C-5.72205e-06 12.4816 9.84226 2.63934 21.9833 2.63934Z" fill="#F23230"/>
<path d="M215.436 127.094L180.275 92.7626C175.932 88.5216 175.849 81.5626 180.09 77.2191C184.331 72.8757 191.29 72.7927 195.633 77.0337L215.065 96.007C223.752 104.489 223.918 118.407 215.436 127.094Z" fill="#FEBB00"/>
<path d="M200.442 112.463L195.879 108.008L211.237 92.2792L215.8 96.7345L200.442 112.463Z" fill="#1873EB"/>
<path d="M52.1689 70.5665L107.643 16.3068C116.35 7.78996 130.29 7.86711 138.903 16.4798L52.1689 103.214L52.1689 70.5665Z" fill="#159B50"/>
<path d="M52.3971 102.883L42.3872 111.447L26.8427 95.9021L52.3971 70.3476L52.3971 102.883Z" fill="#F23230"/>
<path d="M159.317 50.2101C155.058 54.5363 148.099 54.5913 143.773 50.3328L108.555 15.6668C117.072 7.01427 130.99 6.90437 139.643 15.4213L159.194 34.666C163.52 38.9245 163.575 45.8838 159.317 50.2101Z" fill="#159B50"/>
<path d="M137.147 204.307C128.562 212.892 114.643 212.891 106.058 204.306L27.8121 126.059C19.2272 117.474 19.2273 103.555 27.8124 94.9699L137.147 204.307Z" fill="#F23230"/>
<path d="M106.837 205.085L82.251 180.499L97.7957 164.954L122.382 189.541L106.837 205.085Z" fill="#FEBB00"/>
<path d="M215.455 96.4605C224.04 105.045 224.04 118.965 215.455 127.55L138.024 204.981C129.439 213.566 115.52 213.566 106.935 204.981L215.455 96.4605Z" fill="#1873EB"/>
</svg>
